<svg width="45" height="45" viewBox="0 0 45 45" fill="none" xmlns="http://www.w3.org/2000/svg">
<rect width="45" height="45" fill="white"/>
<mask id="path-1-inside-1" fill="white">
<path fill-rule="evenodd" clip-rule="evenodd" d="M18.074 9.33333C17.6571 9.33333 17.284 9.5919 17.1376 9.98221L15.4613 14.4524H5C2.79086 14.4524 1 16.2432 1 18.4524V34C1 36.2091 2.79086 38 5 38H40C42.2091 38 44 36.2091 44 34V18.4524C44 16.2432 42.2091 14.4524 40 14.4524H28.5149L26.8386 9.9822C26.6922 9.5919 26.3191 9.33333 25.9022 9.33333H18.074Z"/>
</mask>
<path d="M17.1376 9.98221L14.3286 8.92883L14.3286 8.92884L17.1376 9.98221ZM15.4613 14.4524V17.4524H17.5403L18.2703 15.5057L15.4613 14.4524ZM28.5149 14.4524L25.7059 15.5057L26.4359 17.4524H28.5149V14.4524ZM26.8386 9.9822L29.6476 8.92884L29.6476 8.92883L26.8386 9.9822ZM19.9466 11.0356C19.6539 11.8162 18.9076 12.3333 18.074 12.3333V6.33333C16.4066 6.33333 14.9141 7.36762 14.3286 8.92883L19.9466 11.0356ZM18.2703 15.5057L19.9466 11.0356L14.3286 8.92884L12.6523 13.399L18.2703 15.5057ZM5 17.4524H15.4613V11.4524H5V17.4524ZM4 18.4524C4 17.9001 4.44772 17.4524 5 17.4524V11.4524C1.134 11.4524 -2 14.5864 -2 18.4524H4ZM4 34V18.4524H-2V34H4ZM5 35C4.44772 35 4 34.5523 4 34H-2C-2 37.866 1.13401 41 5 41V35ZM40 35H5V41H40V35ZM41 34C41 34.5523 40.5523 35 40 35V41C43.866 41 47 37.866 47 34H41ZM41 18.4524V34H47V18.4524H41ZM40 17.4524C40.5523 17.4524 41 17.9001 41 18.4524H47C47 14.5864 43.866 11.4524 40 11.4524V17.4524ZM28.5149 17.4524H40V11.4524H28.5149V17.4524ZM24.0296 11.0356L25.7059 15.5057L31.3239 13.399L29.6476 8.92884L24.0296 11.0356ZM25.9022 12.3333C25.0685 12.3333 24.3223 11.8162 24.0296 11.0356L29.6476 8.92883C29.0621 7.36762 27.5696 6.33333 25.9022 6.33333V12.3333ZM18.074 12.3333H25.9022V6.33333H18.074V12.3333Z" fill="black" mask="url(#path-1-inside-1)"/>
<circle cx="22" cy="27" r="6" stroke="#2B4CDE" stroke-width="2"/>
<path d="M30 20H37.5" stroke="#2B4CDE" stroke-width="2" stroke-linecap="round"/>
</svg>
